<?xml version="1.0" encoding="UTF-8" standalone="no"?>
<svg width="1440px" height="211px" viewBox="0 0 1440 211" version="1.1" xmlns="http://www.w3.org/2000/svg" xmlns:xlink="http://www.w3.org/1999/xlink">
    <!-- Generator: Sketch 3.7.2 (28276) - http://www.bohemiancoding.com/sketch -->
    <title>hud_top</title>
    <desc>Created with Sketch.</desc>
    <defs>
        <radialGradient cx="63.6289954%" cy="50%" fx="63.6289954%" fy="50%" r="171.484705%" id="radialGradient-1">
            <stop stop-color="#244B5A" offset="0%"></stop>
            <stop stop-color="#16262D" offset="100%"></stop>
        </radialGradient>
        <path d="M0.909895897,216.070314 C0.909895897,216.070314 85.84375,232.769531 205.84375,236.769531 C325.84375,240.769531 470.03125,245 470.03125,245 L507.03125,278 C507.03125,278 621,283.96875 739.978516,283.96875 C858.957031,283.96875 973.03125,276 973.03125,276 L1009.03125,245 C1009.03125,245 1127.91406,240.769531 1257.91406,236.769531 C1387.91406,232.769531 1471.71851,214.000001 1471.71851,214.000001 L1471.71849,31.5402391 L1325.30052,0.540239081 L1285.30052,15.5402391 L197.300521,11.5402391 L158.300521,0.540239081 L20.2614584,11.5402391 L0.909895897,216.070314 Z" id="path-2"></path>
    </defs>
    <g id="Homepage" stroke="none" stroke-width="1" fill="none" fill-rule="evenodd">
        <g id="Artboard-1">
            <g id="hud_top" transform="translate(-21.000000, -86.000000)">
                <g id="Page-1">
                    <g>
                        <g id="hud_top">
                            <g id="Clipped">
                                <g id="Group-Clipped">
                                    <g id="Group" transform="translate(0.738542, 0.385542)">
                                        <g transform="translate(-0.000000, 0.000000)">
                                            <g id="Layer_2" transform="translate(428.579167, 252.385542)" fill="#FF9A00">
                                                <polygon id="Shape" points="65.6846021 23.3584337 37.5836271 1.22616867 0.437857292 0.548674699"></polygon>
                                            </g>
                                            <g id="BG">
                                                <use fill-opacity="0.24" fill="#203842" xlink:href="#path-2"></use>
                                                <use stroke="#FF9A00" stroke-width="3" fill-opacity="0.4" fill="url(#radialGradient-1)" xlink:href="#path-2"></use>
                                            </g>
                                            <path d="M11.7172448,222.963855 C11.7172448,222.963855 55.0275646,234.096386 134.137036,240.988217 C181.183037,245.086578 404.505277,253.824024 404.505277,253.824024 L500.009989,286.943301 C500.009989,286.943301 628.784344,294.455373 740.227661,294.455373" id="Shape" stroke="#F89A1D" stroke-width="3" opacity="0.6"></path>
                                            <g id="Layer_2_1_" transform="translate(985.852083, 252.385542)" fill="#FF9A00">
                                                <polygon id="Shape" points="65.5854646 0.548674699 28.4404458 1.22616867 0.338719792 23.3584337"></polygon>
                                            </g>
                                            <g id="Shape" transform="translate(601.318750, 238.867470)" fill="#FF9A00">
                                                <g id="Page-1" transform="translate(0.000000, -0.000000)">
                                                    <path d="M91.977083,23.6963855 L91.977083,42.3036145 L91.977083,43.7349398 L94.6822915,43.7349398 L94.6822915,42.3036145 L94.6822915,23.6963855 L94.6822915,22.2650602 L91.977083,22.2650602 L91.977083,23.6963855 L91.977083,23.6963855 L91.977083,23.6963855 L91.977083,23.6963855 Z M183.954167,23.6963855 L183.954167,42.3036145 L183.954167,43.7349398 L186.659375,43.7349398 L186.659375,42.3036145 L186.659375,23.6963855 L186.659375,22.2650602 L183.954167,22.2650602 L183.954167,23.6963855 L183.954167,23.6963855 L183.954167,23.6963855 L183.954167,23.6963855 Z M275.93125,21.4698795 L275.93125,40.0771084 L275.93125,41.5084337 L278.636458,41.5084337 L278.636458,40.0771084 L278.636458,21.4698795 L278.636458,20.0385542 L275.93125,20.0385542 L275.93125,21.4698795 L275.93125,21.4698795 L275.93125,21.4698795 L275.93125,21.4698795 Z M0,21.4698795 L0,40.0771084 L0,41.5084337 L2.70520834,41.5084337 L2.70520834,40.0771084 L2.70520834,21.4698795 L2.70520834,20.0385542 L0,20.0385542 L0,21.4698795 L0,21.4698795 L0,21.4698795 L0,21.4698795 Z M114.971354,33.7156627 L114.971354,42.3036145 L114.971354,43.7349398 L117.676562,43.7349398 L117.676562,42.3036145 L117.676562,33.7156627 L117.676562,32.2843373 L114.971354,32.2843373 L114.971354,33.7156627 L114.971354,33.7156627 L114.971354,33.7156627 L114.971354,33.7156627 Z M137.965625,34.5108434 L137.965625,43.0987952 L137.965625,44.5301205 L140.670833,44.5301205 L140.670833,43.0987952 L140.670833,34.5108434 L140.670833,33.0795181 L137.965625,33.0795181 L137.965625,34.5108434 L137.965625,34.5108434 L137.965625,34.5108434 L137.965625,34.5108434 Z M160.959896,33.7156627 L160.959896,42.3036145 L160.959896,43.7349398 L163.665104,43.7349398 L163.665104,42.3036145 L163.665104,33.7156627 L163.665104,32.2843373 L160.959896,32.2843373 L160.959896,33.7156627 L160.959896,33.7156627 L160.959896,33.7156627 L160.959896,33.7156627 Z M206.948438,32.9204819 L206.948438,41.5084337 L206.948438,42.939759 L209.653646,42.939759 L209.653646,41.5084337 L209.653646,32.9204819 L209.653646,31.4891566 L206.948438,31.4891566 L206.948438,32.9204819 L206.948438,32.9204819 L206.948438,32.9204819 L206.948438,32.9204819 Z M229.942709,32.9204819 L229.942709,41.5084337 L229.942709,42.939759 L232.647916,42.939759 L232.647916,41.5084337 L232.647916,32.9204819 L232.647916,31.4891566 L229.942709,31.4891566 L229.942709,32.9204819 L229.942709,32.9204819 L229.942709,32.9204819 L229.942709,32.9204819 Z M252.936979,32.9204819 L252.936979,41.5084337 L252.936979,42.939759 L255.642187,42.939759 L255.642187,41.5084337 L255.642187,32.9204819 L255.642187,31.4891566 L252.936979,31.4891566 L252.936979,32.9204819 L252.936979,32.9204819 L252.936979,32.9204819 L252.936979,32.9204819 Z M68.9828125,33.7156627 L68.9828125,42.3036145 L68.9828125,43.7349398 L71.6880208,43.7349398 L71.6880208,42.3036145 L71.6880208,33.7156627 L71.6880208,32.2843373 L68.9828125,32.2843373 L68.9828125,33.7156627 L68.9828125,33.7156627 L68.9828125,33.7156627 L68.9828125,33.7156627 Z M45.9885417,32.9204819 L45.9885417,41.5084337 L45.9885417,42.939759 L48.69375,42.939759 L48.69375,41.5084337 L48.69375,32.9204819 L48.69375,31.4891566 L45.9885417,31.4891566 L45.9885417,32.9204819 L45.9885417,32.9204819 L45.9885417,32.9204819 L45.9885417,32.9204819 Z M22.9942709,31.6481928 L22.9942709,40.2361443 L22.9942709,41.6674696 L25.6994792,41.6674696 L25.6994792,40.2361443 L25.6994792,31.6481928 L25.6994792,30.2168675 L22.9942709,30.2168675 L22.9942709,31.6481928 L22.9942709,31.6481928 L22.9942709,31.6481928 L22.9942709,31.6481928 Z M129.85,-3.69482223e-13 L148.786458,-3.69482223e-13 L139.318229,10.0192771 L129.85,-3.69482223e-13 L129.85,-3.69482223e-13 L129.85,-3.69482223e-13 L129.85,-3.69482223e-13 Z" id="Shape"></path>
                                                </g>
                                            </g>
                                            <path d="M1468.73808,222.963855 C1468.73808,222.963855 1425.42776,234.096386 1346.31829,240.988217 C1299.27229,245.086578 1075.9508,253.824024 1075.9508,253.824024 L980.445334,286.943301 C980.445334,286.943301 851.670979,294.455373 740.227661,294.455373" id="Shape" stroke="#F89A1D" stroke-width="3" opacity="0.6"></path>
                                            <path id="Path-23" stroke="#979797"></path>
                                        </g>
                                    </g>
                                </g>
                            </g>
                        </g>
                    </g>
                </g>
            </g>
        </g>
    </g>
</svg>