<?xml version="1.0" encoding="UTF-8" standalone="no"?>
<svg width="1440px" height="136px" viewBox="0 0 1440 136" version="1.1" xmlns="http://www.w3.org/2000/svg" xmlns:xlink="http://www.w3.org/1999/xlink" preserveAspectRatio="none">
    <!-- Generator: Sketch 3.7.2 (28276) - http://www.bohemiancoding.com/sketch -->
    <title>Footer</title>
    <desc>Created with Sketch.</desc>
    <defs>
        <rect id="path-1" x="0" y="0" width="1440" height="177"></rect>
        <rect id="path-3" x="0" y="0" width="1440" height="177"></rect>
    </defs>
    <g id="Homepage" stroke="none" stroke-width="1" fill="none" fill-rule="evenodd" opacity="0.8">
        <g id="Footer" transform="translate(0.000000, -177.000000)">
            <g id="Layer_1">
                <g transform="translate(0.000000, 136.000000)">
                    <g>
                        <g id="Group">
                            <g id="Clipped">
                                <mask id="mask-2" fill="white">
                                    <use xlink:href="#path-1"></use>
                                </mask>
                                <g id="SVGID_1_"></g>
                                <g id="Group" mask="url(#mask-2)" stroke="#F89A1D" stroke-width="3">
                                    <g transform="translate(-14.250000, 42.732865)" id="Shape">
                                        <path d="M1453.34625,41.1175624 C1442.4975,37.0055925 1425.1875,31.4139971 1399.59675,25.6397188 C1349.09625,14.2439321 1303.34625,12.8198594 1303.34625,12.8198594 L1265.51775,68.5734279 C1265.51775,68.5734279 1125.624,43.9133601 734.403,43.8994719 L734.403,43.8994719 L734.24925,43.8994719 L734.0955,43.8994719 L734.0955,43.8994719 C342.8745,43.9122917 202.98075,68.5734279 202.98075,68.5734279 L165.15375,12.8198594 C165.15375,12.8198594 119.40375,14.2439321 68.904,25.6397188 C43.3125,31.4139971 26.0025,37.0066608 15.15375,41.1175624 C4.59375,45.1194952 0.15375,47.7187217 0.15375,47.7187217 L0.15375,226.484183 L734.097,226.484183 L734.40375,226.484183 L1468.34625,226.484183 L1468.34625,47.7187217 C1468.34625,47.7187217 1463.90625,45.1194952 1453.34625,41.1175624 L1453.34625,41.1175624 Z" fill="#20424F" fill-rule="evenodd"></path>
                                        <path d="M1468.34625,34.8988623 C1468.34625,34.8988623 1463.90625,32.2996358 1453.34625,28.297703 C1442.4975,24.1857331 1425.1875,18.5941377 1399.59675,12.8198594 C1349.09625,1.42407272 1297.34625,7.10542736e-15 1297.34625,7.10542736e-15 L1259.51775,55.7535685 C1259.51775,55.7535685 1125.624,31.0935007 734.403,31.0796125 L734.403,31.0796125 L734.24925,31.0796125 L734.0955,31.0796125 L734.0955,31.0796125 C342.8745,31.0924323 207.48075,55.7535685 207.48075,55.7535685 L169.65375,7.10542736e-15 C169.65375,7.10542736e-15 119.40375,1.42407272 68.904,12.8198594 C43.3125,18.5941377 26.0025,24.1868014 15.15375,28.297703 C4.59375,32.2996358 0.15375,34.8988623 0.15375,34.8988623" fill="none" opacity="0.6"></path>
                                    </g>
                                </g>
                            </g>
                            <g id="Clipped">
                                <mask id="mask-4" fill="white">
                                    <use xlink:href="#path-3"></use>
                                </mask>
                                <g id="SVGID_1_"></g>
                            </g>
                        </g>
                    </g>
                </g>
            </g>
        </g>
    </g>
</svg>
