<?xml version="1.0" encoding="UTF-8" standalone="no"?>
<svg width="182px" height="174px" viewBox="0 0 182 174" version="1.1" xmlns="http://www.w3.org/2000/svg" xmlns:xlink="http://www.w3.org/1999/xlink" xmlns:sketch="http://www.bohemiancoding.com/sketch/ns">
    <!-- Generator: Sketch 3.3.2 (12043) - http://www.bohemiancoding.com/sketch -->
    <title>badcamp-2015-logo</title>
    <desc>Created with Sketch.</desc>
    <defs>
        <linearGradient x1="-73.6046898%" y1="40.446335%" x2="148.790506%" y2="68.1898915%" id="linearGradient-1">
            <stop stop-color="#3023AE" offset="0%"></stop>
            <stop stop-color="#53A0FE" offset="48.6461512%"></stop>
            <stop stop-color="#B4ED50" offset="100%"></stop>
        </linearGradient>
        <linearGradient x1="49.0421868%" y1="-37.5578704%" x2="50.8791567%" y2="157.798032%" id="linearGradient-2">
            <stop stop-color="#3023AE" offset="0%"></stop>
            <stop stop-color="#53A0FE" offset="47.5247532%"></stop>
            <stop stop-color="#B4ED50" offset="100%"></stop>
        </linearGradient>
    </defs>
    <g id="Welcome" stroke="none" stroke-width="1" fill="none" fill-rule="evenodd" sketch:type="MSPage">
        <g id="Homepage---Side-Nav" sketch:type="MSArtboardGroup" transform="translate(-25.000000, -41.000000)">
            <g id="Side-Navigation" sketch:type="MSLayerGroup" transform="translate(-1.000000, -9.000000)">
                <g id="badcamp-2015-logo" transform="translate(26.000000, 47.000000)" sketch:type="MSShapeGroup">
                    <g id="Register">
                        <g id="badcamp_icon-copy-+-BADCAMP--Copy">
                            <g id="badcamp_icon-copy" transform="translate(27.000000, 0.000000)">
                                <path d="M67.9110335,17.318664 C64.1503166,14.7000448 58.9337039,8.4665391 54.5650551,3.10382056 C53.7154888,11.7076196 51.1687127,15.1993313 48.2572416,17.6921408 C42.0692839,22.6797358 38.1880702,24.1756191 32.848397,27.1683737 C28.3602129,29.5383376 3.97499999,44.4994759 3.97499999,76.6675536 C3.97499999,108.835631 30.3013004,132.52539 59.5400334,132.52539 C88.7794072,132.52539 114.135004,110.70565 114.135004,77.6644798 C114.135004,44.6233095 90.3564407,29.6621712 86.4742656,27.1683737 C80.0430711,23.0538713 73.9778535,21.432837 67.9110335,17.318664 L67.9110335,17.318664 Z" id="Fill-1" fill="url(#linearGradient-1)" transform="translate(59.055002, 67.814605) rotate(3.000000) translate(-59.055002, -67.814605) "></path>
                                <path d="M24.6112592,117.375799 C24.6112592,117.375799 16.371493,108.446105 15.7149746,101.764974 C15.0581268,95.084176 16.1885775,95.592657 17.4347099,95.592657 C18.6808423,95.592657 60.2141944,119.65764 79.9357803,118.999743 C90.7917324,118.637683 92.8891634,118.572127 92.8891634,118.572127 C92.8891634,118.572127 84.5360225,128.900475 56.9952113,128.900475 C39.1133268,128.900475 24.6112592,117.375799 24.6112592,117.375799" id="Fill-2" fill="#FFFFFF"></path>
                                <path d="M16.5998901,94.382686 C15.7146451,94.382686 14.5482704,94.902481 14.5482704,96.844558 C14.5482704,101.320054 15.7588085,104.912031 17.9666479,108.624805 L19.2635352,112.926593 L21.2970282,112.09299 C16.0231296,106.288722 14.6313239,97.012609 17.2666254,96.476508 C19.7490028,96.19731 40.3581408,109.033121 49.3368197,112.480341 C68.0103493,119.649653 79.0294423,119.696242 89.0749634,119.696242 C89.9803127,119.115549 92.2969127,119.88193 93.1462338,119.290256 C95.5455577,117.618725 96.0896901,114.715926 96.3546704,114.399789 C91.7653042,117.95982 88.0216338,117.95982 81.4340394,117.95982 C69.5142113,117.95982 53.811493,112.888323 42.620031,106.776904 C30.8995972,100.376303 19.830738,94.382686 16.5998901,94.382686" id="Fill-4" fill="#0B0B0A"></path>
                                <path d="M96.9157655,36.5254976 C97.2570884,37.4963213 91.0117942,29.7232697 90.6811376,31.4707524 C98.6802828,41.8291799 81.8238092,66.169623 60.4414554,73.6306572 C38.8744215,81.1581566 5.32725965,79.7623859 5.45647474,66.5145655 C5.45647474,66.5145655 3.85103825,72.0982635 4.58000637,74.3663908 C6.03733312,79.6113005 15.7949006,83.9764686 26.2454754,84.93283 C28.2760417,88.917669 34.5710106,99.005928 46.3734677,99.003774 C47.9447719,99.003466 49.6142064,98.824071 51.3839045,98.427741 C66.6824831,95.00078 69.7138568,82.5265411 70.2840488,76.6705201 C91.4570377,66.4871793 99.9931569,46.055571 96.9157655,36.5254976" id="Fill-5" fill="#1A1918"></path>
                                <path d="M111.419327,69.320375 C109.814614,72.4810753 107.98447,74.940618 106.133893,77.2184653 C105.747299,76.9675527 104.984986,76.2760455 103.299197,69.8910847 C103.962966,73.1183401 103.822896,79.1701928 102.380006,82.0187499 C96.4532141,87.3538045 92.2735127,88.3967225 87.4363042,89.1767479 C86.6677296,89.3002076 84.9971014,89.1953833 83.3343831,88.2439786 C85.3665577,93.075544 87.2326254,94.959385 95.8240507,94.959385 C99.311969,94.959385 101.146397,92.2243047 103.768515,89.529157 C104.707482,89.3667626 105.27073,88.840312 105.442769,87.5940683 C108.705586,83.3611657 110.379839,78.4999833 111.419327,69.320375" id="Fill-6" fill="#FFFFFF"></path>
                                <path d="M79.1329296,99.901432 C80.7452225,99.901432 81.923462,100.64818 83.4652254,101.474129 C85.3223944,102.469792 86.9468817,103.365291 86.9468817,104.112039 C86.9468817,104.414864 86.7481465,105.001215 85.9937437,105.001215 C84.6391803,105.001215 83.0539127,102.400242 79.3913183,102.400242 C76.2511042,102.400242 73.873862,105.530327 71.2204338,105.530327 C70.6219211,105.530327 70.2336789,105.094724 70.2336789,104.682083 C70.2336789,103.432844 71.8238901,103.249485 74.3135183,101.72604 C75.9258113,100.739693 77.2770789,99.901432 79.1329296,99.901432" id="Fill-7" fill="#1A1918"></path>
                                <path d="M17.4347099,102.048832 C27.8661662,113.469016 35.6741859,118.006741 47.2878366,121.307207 C58.7854761,124.574396 68.0182592,124.361419 85.1061915,120.690242 C72.2480563,124.481551 60.778431,126.440933 46.8870704,122.636312 C33.5510479,118.98377 25.0265268,112.397147 17.4347099,102.048832" id="Fill-8" fill="#1A1918"></path>
                                <path d="M25.5106761,102.68776 L24.6112592,109.756574 L25.8231155,114.561185 L25.5106761,102.68776" id="Fill-9" fill="#1A1918"></path>
                                <path d="M40.7233127,112.142241 L39.1133268,119.464297 L39.7154648,122.609024 L40.2938732,119.960465 L40.7233127,112.142241" id="Fill-10" fill="#1A1918"></path>
                                <path d="M60.7075718,117.95982 L59.3971718,124.090208 L56.5829099,127.078863 L57.402569,123.929144 L60.7075718,117.95982" id="Fill-11" fill="#1A1918"></path>
                                <path d="M75.0844,120.456966 L74.2627634,123.173079 L72.2711268,125.56174 L73.1662592,123.166756 L75.0844,120.456966" id="Fill-12" fill="#1A1918"></path>
                                <path d="M82.7184028,87.2409936 C87.9435239,87.2409936 96.2904028,83.8503455 100.850437,80.2161058 C104.54467,77.2710439 106.542239,75.3429434 111.419327,69.320375 C108.057307,75.5845383 103.116941,82.5525216 97.142031,86.2489903 C92.3819437,89.1940522 89.7720197,89.8782384 87.2932676,89.8782384 C86.5972,89.8782384 84.0370423,89.4200067 83.5327887,88.7587821 C83.195631,88.3178547 82.9270254,87.7867452 82.7184028,87.2409936" id="Fill-13" fill="#1A1918"></path>
                                <path d="M82.7184028,87.2409936 C83.8551155,92.7048323 87.2899718,96.978333 92.6083634,96.978333 C99.6151803,96.978333 104.549614,91.9138252 106.831608,87.1351711 C108.929699,82.741538 109.492946,81.2250807 110.817189,73.7193324 C109.294211,80.9225879 107.593262,85.2965872 104.475459,88.6589494 C101.60451,91.7547586 98.0038761,94.660553 92.9797972,94.660553 C88.3831803,94.660553 84.8705437,92.6119879 83.7038394,88.3657744 C83.5795887,87.9131999 82.9487775,87.6612889 82.7184028,87.2409936" id="Fill-14" fill="#1A1918"></path>
                                <path d="M106.133893,77.6291101 C105.128352,75.6777154 104.329456,73.7862203 103.299197,69.8910847 C104.28002,77.7509059 102.730676,81.6543609 101.736011,82.6257322 L103.919462,89.2449669 C103.919462,89.2449669 104.333411,90.293542 105.030468,92.7178105 C105.030468,89.8782384 105.046946,88.1634469 105.926259,86.8786013 L106.133893,77.6291101" id="Fill-15" fill="#FFFFFF"></path>
                            </g>
                            <path d="M16.81,151.604 L15.632,150.388 L14.416,151.604 L15.632,152.782 L16.81,151.604 L16.81,151.604 Z M19.166,153.96 L17.988,152.744 L16.772,153.96 L17.988,155.138 L19.166,153.96 L19.166,153.96 Z M14.416,151.604 L13.276,150.388 L12.06,151.604 L13.276,152.782 L14.416,151.604 L14.416,151.604 Z M16.81,153.96 L15.632,152.744 L14.416,153.96 L15.632,155.138 L16.81,153.96 L16.81,153.96 Z M19.166,156.316 L17.988,155.1 L16.772,156.316 L17.988,157.494 L19.166,156.316 L19.166,156.316 Z M12.06,151.604 L10.92,150.388 L9.704,151.604 L10.92,152.782 L12.06,151.604 L12.06,151.604 Z M14.454,153.96 L13.276,152.744 L12.06,153.96 L13.276,155.138 L14.454,153.96 L14.454,153.96 Z M16.81,156.316 L15.632,155.1 L14.416,156.316 L15.632,157.494 L16.81,156.316 L16.81,156.316 Z M19.166,158.672 L17.988,157.456 L16.772,158.672 L17.988,159.85 L19.166,158.672 L19.166,158.672 Z M9.704,151.604 L8.564,150.388 L7.348,151.604 L8.564,152.782 L9.704,151.604 L9.704,151.604 Z M12.098,153.96 L10.92,152.744 L9.704,153.96 L10.92,155.138 L12.098,153.96 L12.098,153.96 Z M14.454,156.316 L13.276,155.1 L12.06,156.316 L13.276,157.494 L14.454,156.316 L14.454,156.316 Z M16.81,158.672 L15.632,157.456 L14.416,158.672 L15.632,159.85 L16.81,158.672 L16.81,158.672 Z M19.166,161.028 L17.988,159.812 L16.772,161.028 L17.988,162.206 L19.166,161.028 L19.166,161.028 Z M7.386,151.604 L6.246,150.388 L5.03,151.604 L6.246,152.782 L7.386,151.604 L7.386,151.604 Z M9.742,153.96 L8.564,152.744 L7.348,153.96 L8.564,155.138 L9.742,153.96 L9.742,153.96 Z M14.454,158.672 L13.276,157.456 L12.06,158.672 L13.276,159.85 L14.454,158.672 L14.454,158.672 Z M16.81,161.028 L15.632,159.812 L14.416,161.028 L15.632,162.206 L16.81,161.028 L16.81,161.028 Z M19.166,163.384 L17.988,162.168 L16.772,163.384 L17.988,164.562 L19.166,163.384 L19.166,163.384 Z M21.484,165.74 L20.306,164.524 L19.09,165.74 L20.306,166.918 L21.484,165.74 L21.484,165.74 Z M5.03,151.604 L3.89,150.388 L2.674,151.604 L3.89,152.782 L5.03,151.604 L5.03,151.604 Z M7.424,153.96 L6.246,152.744 L5.03,153.96 L6.246,155.138 L7.424,153.96 L7.424,153.96 Z M14.454,161.028 L13.276,159.812 L12.06,161.028 L13.276,162.206 L14.454,161.028 L14.454,161.028 Z M16.81,163.384 L15.632,162.168 L14.416,163.384 L15.632,164.562 L16.81,163.384 L16.81,163.384 Z M19.166,165.74 L17.988,164.524 L16.772,165.74 L17.988,166.918 L19.166,165.74 L19.166,165.74 Z M21.484,168.058 L20.306,166.842 L19.09,168.058 L20.306,169.236 L21.484,168.058 L21.484,168.058 Z M2.674,151.604 L1.534,150.388 L0.318,151.604 L1.534,152.782 L2.674,151.604 L2.674,151.604 Z M5.068,153.96 L3.89,152.744 L2.674,153.96 L3.89,155.138 L5.068,153.96 L5.068,153.96 Z M7.424,156.316 L6.246,155.1 L5.03,156.316 L6.246,157.494 L7.424,156.316 L7.424,156.316 Z M19.166,168.058 L17.988,166.842 L16.772,168.058 L17.988,169.236 L19.166,168.058 L19.166,168.058 Z M12.06,161.028 L10.92,159.812 L9.704,161.028 L10.92,162.206 L12.06,161.028 L12.06,161.028 Z M14.454,163.384 L13.276,162.168 L12.06,163.384 L13.276,164.562 L14.454,163.384 L14.454,163.384 Z M16.81,165.74 L15.632,164.524 L14.416,165.74 L15.632,166.918 L16.81,165.74 L16.81,165.74 Z M21.484,170.414 L20.306,169.198 L19.09,170.414 L20.306,171.592 L21.484,170.414 L21.484,170.414 Z M2.674,153.96 L1.534,152.744 L0.318,153.96 L1.534,155.138 L2.674,153.96 L2.674,153.96 Z M5.068,156.316 L3.89,155.1 L2.674,156.316 L3.89,157.494 L5.068,156.316 L5.068,156.316 Z M7.424,158.672 L6.246,157.456 L5.03,158.672 L6.246,159.85 L7.424,158.672 L7.424,158.672 Z M16.81,168.058 L15.632,166.842 L14.416,168.058 L15.632,169.236 L16.81,168.058 L16.81,168.058 Z M19.166,170.414 L17.988,169.198 L16.772,170.414 L17.988,171.592 L19.166,170.414 L19.166,170.414 Z M9.704,161.028 L8.564,159.812 L7.348,161.028 L8.564,162.206 L9.704,161.028 L9.704,161.028 Z M12.098,163.384 L10.92,162.168 L9.704,163.384 L10.92,164.562 L12.098,163.384 L12.098,163.384 Z M21.484,172.77 L20.306,171.554 L19.09,172.77 L20.306,173.948 L21.484,172.77 L21.484,172.77 Z M2.674,156.316 L1.534,155.1 L0.318,156.316 L1.534,157.494 L2.674,156.316 L2.674,156.316 Z M5.068,158.672 L3.89,157.456 L2.674,158.672 L3.89,159.85 L5.068,158.672 L5.068,158.672 Z M7.424,161.028 L6.246,159.812 L5.03,161.028 L6.246,162.206 L7.424,161.028 L7.424,161.028 Z M16.81,170.414 L15.632,169.198 L14.416,170.414 L15.632,171.592 L16.81,170.414 L16.81,170.414 Z M19.166,172.77 L17.988,171.554 L16.772,172.77 L17.988,173.948 L19.166,172.77 L19.166,172.77 Z M9.704,163.384 L8.564,162.168 L7.348,163.384 L8.564,164.562 L9.704,163.384 L9.704,163.384 Z M2.674,158.672 L1.534,157.456 L0.318,158.672 L1.534,159.85 L2.674,158.672 L2.674,158.672 Z M5.068,161.028 L3.89,159.812 L2.674,161.028 L3.89,162.206 L5.068,161.028 L5.068,161.028 Z M7.424,163.384 L6.246,162.168 L5.03,163.384 L6.246,164.562 L7.424,163.384 L7.424,163.384 Z M16.81,172.77 L15.632,171.554 L14.416,172.77 L15.632,173.948 L16.81,172.77 L16.81,172.77 Z M19.166,175.126 L17.988,173.91 L16.772,175.126 L17.988,176.304 L19.166,175.126 L19.166,175.126 Z M2.674,161.028 L1.534,159.812 L0.318,161.028 L1.534,162.206 L2.674,161.028 L2.674,161.028 Z M5.068,163.384 L3.89,162.168 L2.674,163.384 L3.89,164.562 L5.068,163.384 L5.068,163.384 Z M7.424,165.74 L6.246,164.524 L5.03,165.74 L6.246,166.918 L7.424,165.74 L7.424,165.74 Z M14.454,172.77 L13.276,171.554 L12.06,172.77 L13.276,173.948 L14.454,172.77 L14.454,172.77 Z M16.81,175.126 L15.632,173.91 L14.416,175.126 L15.632,176.304 L16.81,175.126 L16.81,175.126 Z M7.386,168.058 L6.246,166.842 L5.03,168.058 L6.246,169.236 L7.386,168.058 L7.386,168.058 Z M2.674,163.384 L1.534,162.168 L0.318,163.384 L1.534,164.562 L2.674,163.384 L2.674,163.384 Z M5.068,165.74 L3.89,164.524 L2.674,165.74 L3.89,166.918 L5.068,165.74 L5.068,165.74 Z M12.098,172.77 L10.92,171.554 L9.704,172.77 L10.92,173.948 L12.098,172.77 L12.098,172.77 Z M14.454,175.126 L13.276,173.91 L12.06,175.126 L13.276,176.304 L14.454,175.126 L14.454,175.126 Z M5.03,168.058 L3.89,166.842 L2.674,168.058 L3.89,169.236 L5.03,168.058 L5.03,168.058 Z M7.424,170.414 L6.246,169.198 L5.03,170.414 L6.246,171.592 L7.424,170.414 L7.424,170.414 Z M2.674,165.74 L1.534,164.524 L0.318,165.74 L1.534,166.918 L2.674,165.74 L2.674,165.74 Z M9.742,172.77 L8.564,171.554 L7.348,172.77 L8.564,173.948 L9.742,172.77 L9.742,172.77 Z M12.098,175.126 L10.92,173.91 L9.704,175.126 L10.92,176.304 L12.098,175.126 L12.098,175.126 Z M2.674,168.058 L1.534,166.842 L0.318,168.058 L1.534,169.236 L2.674,168.058 L2.674,168.058 Z M5.068,170.414 L3.89,169.198 L2.674,170.414 L3.89,171.592 L5.068,170.414 L5.068,170.414 Z M7.424,172.77 L6.246,171.554 L5.03,172.77 L6.246,173.948 L7.424,172.77 L7.424,172.77 Z M9.742,175.126 L8.564,173.91 L7.348,175.126 L8.564,176.304 L9.742,175.126 L9.742,175.126 Z M2.674,170.414 L1.534,169.198 L0.318,170.414 L1.534,171.592 L2.674,170.414 L2.674,170.414 Z M5.068,172.77 L3.89,171.554 L2.674,172.77 L3.89,173.948 L5.068,172.77 L5.068,172.77 Z M7.424,175.126 L6.246,173.91 L5.03,175.126 L6.246,176.304 L7.424,175.126 L7.424,175.126 Z M2.674,172.77 L1.534,171.554 L0.318,172.77 L1.534,173.948 L2.674,172.77 L2.674,172.77 Z M5.068,175.126 L3.89,173.91 L2.674,175.126 L3.89,176.304 L5.068,175.126 L5.068,175.126 Z M2.674,175.126 L1.534,173.91 L0.318,175.126 L1.534,176.304 L2.674,175.126 L2.674,175.126 Z M45.006,151.604 L43.828,150.388 L42.612,151.604 L43.828,152.782 L45.006,151.604 L45.006,151.604 Z M47.324,153.96 L46.146,152.744 L44.93,153.96 L46.146,155.138 L47.324,153.96 L47.324,153.96 Z M42.612,151.604 L41.472,150.388 L40.256,151.604 L41.472,152.782 L42.612,151.604 L42.612,151.604 Z M45.006,153.96 L43.828,152.744 L42.612,153.96 L43.828,155.138 L45.006,153.96 L45.006,153.96 Z M47.324,156.316 L46.146,155.1 L44.93,156.316 L46.146,157.494 L47.324,156.316 L47.324,156.316 Z M40.256,151.604 L39.116,150.388 L37.9,151.604 L39.116,152.782 L40.256,151.604 L40.256,151.604 Z M42.65,153.96 L41.472,152.744 L40.256,153.96 L41.472,155.138 L42.65,153.96 L42.65,153.96 Z M45.006,156.316 L43.828,155.1 L42.612,156.316 L43.828,157.494 L45.006,156.316 L45.006,156.316 Z M47.324,158.672 L46.146,157.456 L44.93,158.672 L46.146,159.85 L47.324,158.672 L47.324,158.672 Z M37.9,151.604 L36.76,150.388 L35.544,151.604 L36.76,152.782 L37.9,151.604 L37.9,151.604 Z M40.294,153.96 L39.116,152.744 L37.9,153.96 L39.116,155.138 L40.294,153.96 L40.294,153.96 Z M42.65,156.316 L41.472,155.1 L40.256,156.316 L41.472,157.494 L42.65,156.316 L42.65,156.316 Z M45.006,158.672 L43.828,157.456 L42.612,158.672 L43.828,159.85 L45.006,158.672 L45.006,158.672 Z M47.324,161.028 L46.146,159.812 L44.93,161.028 L46.146,162.206 L47.324,161.028 L47.324,161.028 Z M35.544,151.604 L34.404,150.388 L33.188,151.604 L34.404,152.782 L35.544,151.604 L35.544,151.604 Z M37.938,153.96 L36.76,152.744 L35.544,153.96 L36.76,155.138 L37.938,153.96 L37.938,153.96 Z M42.65,158.672 L41.472,157.456 L40.256,158.672 L41.472,159.85 L42.65,158.672 L42.65,158.672 Z M45.006,161.028 L43.828,159.812 L42.612,161.028 L43.828,162.206 L45.006,161.028 L45.006,161.028 Z M47.324,163.384 L46.146,162.168 L44.93,163.384 L46.146,164.562 L47.324,163.384 L47.324,163.384 Z M33.226,151.604 L32.086,150.388 L30.87,151.604 L32.086,152.782 L33.226,151.604 L33.226,151.604 Z M35.582,153.96 L34.404,152.744 L33.188,153.96 L34.404,155.138 L35.582,153.96 L35.582,153.96 Z M42.65,161.028 L41.472,159.812 L40.256,161.028 L41.472,162.206 L42.65,161.028 L42.65,161.028 Z M45.006,163.384 L43.828,162.168 L42.612,163.384 L43.828,164.562 L45.006,163.384 L45.006,163.384 Z M47.324,165.74 L46.146,164.524 L44.93,165.74 L46.146,166.918 L47.324,165.74 L47.324,165.74 Z M30.87,151.604 L29.73,150.388 L28.514,151.604 L29.73,152.782 L30.87,151.604 L30.87,151.604 Z M33.264,153.96 L32.086,152.744 L30.87,153.96 L32.086,155.138 L33.264,153.96 L33.264,153.96 Z M42.65,163.384 L41.472,162.168 L40.256,163.384 L41.472,164.562 L42.65,163.384 L42.65,163.384 Z M45.006,165.74 L43.828,164.524 L42.612,165.74 L43.828,166.918 L45.006,165.74 L45.006,165.74 Z M47.324,168.058 L46.146,166.842 L44.93,168.058 L46.146,169.236 L47.324,168.058 L47.324,168.058 Z M30.87,153.96 L29.73,152.744 L28.514,153.96 L29.73,155.138 L30.87,153.96 L30.87,153.96 Z M33.264,156.316 L32.086,155.1 L30.87,156.316 L32.086,157.494 L33.264,156.316 L33.264,156.316 Z M45.006,168.058 L43.828,166.842 L42.612,168.058 L43.828,169.236 L45.006,168.058 L45.006,168.058 Z M40.256,163.384 L39.116,162.168 L37.9,163.384 L39.116,164.562 L40.256,163.384 L40.256,163.384 Z M42.65,165.74 L41.472,164.524 L40.256,165.74 L41.472,166.918 L42.65,165.74 L42.65,165.74 Z M47.324,170.414 L46.146,169.198 L44.93,170.414 L46.146,171.592 L47.324,170.414 L47.324,170.414 Z M28.514,153.96 L27.374,152.744 L26.158,153.96 L27.374,155.138 L28.514,153.96 L28.514,153.96 Z M30.908,156.316 L29.73,155.1 L28.514,156.316 L29.73,157.494 L30.908,156.316 L30.908,156.316 Z M33.264,158.672 L32.086,157.456 L30.87,158.672 L32.086,159.85 L33.264,158.672 L33.264,158.672 Z M42.65,168.058 L41.472,166.842 L40.256,168.058 L41.472,169.236 L42.65,168.058 L42.65,168.058 Z M45.006,170.414 L43.828,169.198 L42.612,170.414 L43.828,171.592 L45.006,170.414 L45.006,170.414 Z M37.9,163.384 L36.76,162.168 L35.544,163.384 L36.76,164.562 L37.9,163.384 L37.9,163.384 Z M40.294,165.74 L39.116,164.524 L37.9,165.74 L39.116,166.918 L40.294,165.74 L40.294,165.74 Z M47.324,172.77 L46.146,171.554 L44.93,172.77 L46.146,173.948 L47.324,172.77 L47.324,172.77 Z M28.514,156.316 L27.374,155.1 L26.158,156.316 L27.374,157.494 L28.514,156.316 L28.514,156.316 Z M30.908,158.672 L29.73,157.456 L28.514,158.672 L29.73,159.85 L30.908,158.672 L30.908,158.672 Z M33.264,161.028 L32.086,159.812 L30.87,161.028 L32.086,162.206 L33.264,161.028 L33.264,161.028 Z M42.65,170.414 L41.472,169.198 L40.256,170.414 L41.472,171.592 L42.65,170.414 L42.65,170.414 Z M45.006,172.77 L43.828,171.554 L42.612,172.77 L43.828,173.948 L45.006,172.77 L45.006,172.77 Z M35.544,163.384 L34.404,162.168 L33.188,163.384 L34.404,164.562 L35.544,163.384 L35.544,163.384 Z M37.938,165.74 L36.76,164.524 L35.544,165.74 L36.76,166.918 L37.938,165.74 L37.938,165.74 Z M47.324,175.126 L46.146,173.91 L44.93,175.126 L46.146,176.304 L47.324,175.126 L47.324,175.126 Z M28.514,158.672 L27.374,157.456 L26.158,158.672 L27.374,159.85 L28.514,158.672 L28.514,158.672 Z M30.908,161.028 L29.73,159.812 L28.514,161.028 L29.73,162.206 L30.908,161.028 L30.908,161.028 Z M33.264,163.384 L32.086,162.168 L30.87,163.384 L32.086,164.562 L33.264,163.384 L33.264,163.384 Z M42.65,172.77 L41.472,171.554 L40.256,172.77 L41.472,173.948 L42.65,172.77 L42.65,172.77 Z M45.006,175.126 L43.828,173.91 L42.612,175.126 L43.828,176.304 L45.006,175.126 L45.006,175.126 Z M35.544,165.74 L34.404,164.524 L33.188,165.74 L34.404,166.918 L35.544,165.74 L35.544,165.74 Z M28.514,161.028 L27.374,159.812 L26.158,161.028 L27.374,162.206 L28.514,161.028 L28.514,161.028 Z M30.908,163.384 L29.73,162.168 L28.514,163.384 L29.73,164.562 L30.908,163.384 L30.908,163.384 Z M33.264,165.74 L32.086,164.524 L30.87,165.74 L32.086,166.918 L33.264,165.74 L33.264,165.74 Z M42.65,175.126 L41.472,173.91 L40.256,175.126 L41.472,176.304 L42.65,175.126 L42.65,175.126 Z M33.226,168.058 L32.086,166.842 L30.87,168.058 L32.086,169.236 L33.226,168.058 L33.226,168.058 Z M28.514,163.384 L27.374,162.168 L26.158,163.384 L27.374,164.562 L28.514,163.384 L28.514,163.384 Z M30.908,165.74 L29.73,164.524 L28.514,165.74 L29.73,166.918 L30.908,165.74 L30.908,165.74 Z M30.908,168.058 L29.73,166.842 L28.514,168.058 L29.73,169.236 L30.908,168.058 L30.908,168.058 Z M33.264,170.414 L32.086,169.198 L30.87,170.414 L32.086,171.592 L33.264,170.414 L33.264,170.414 Z M28.514,165.74 L27.374,164.524 L26.158,165.74 L27.374,166.918 L28.514,165.74 L28.514,165.74 Z M28.552,168.058 L27.374,166.842 L26.158,168.058 L27.374,169.236 L28.552,168.058 L28.552,168.058 Z M30.908,170.414 L29.73,169.198 L28.514,170.414 L29.73,171.592 L30.908,170.414 L30.908,170.414 Z M33.264,172.77 L32.086,171.554 L30.87,172.77 L32.086,173.948 L33.264,172.77 L33.264,172.77 Z M28.514,170.414 L27.374,169.198 L26.158,170.414 L27.374,171.592 L28.514,170.414 L28.514,170.414 Z M30.908,172.77 L29.73,171.554 L28.514,172.77 L29.73,173.948 L30.908,172.77 L30.908,172.77 Z M33.264,175.126 L32.086,173.91 L30.87,175.126 L32.086,176.304 L33.264,175.126 L33.264,175.126 Z M28.514,172.77 L27.374,171.554 L26.158,172.77 L27.374,173.948 L28.514,172.77 L28.514,172.77 Z M30.908,175.126 L29.73,173.91 L28.514,175.126 L29.73,176.304 L30.908,175.126 L30.908,175.126 Z M28.514,175.126 L27.374,173.91 L26.158,175.126 L27.374,176.304 L28.514,175.126 L28.514,175.126 Z M70.846,151.604 L69.668,150.388 L68.452,151.604 L69.668,152.782 L70.846,151.604 L70.846,151.604 Z M73.164,153.96 L71.986,152.744 L70.77,153.96 L71.986,155.138 L73.164,153.96 L73.164,153.96 Z M68.452,151.604 L67.312,150.388 L66.096,151.604 L67.312,152.782 L68.452,151.604 L68.452,151.604 Z M70.846,153.96 L69.668,152.744 L68.452,153.96 L69.668,155.138 L70.846,153.96 L70.846,153.96 Z M73.164,156.316 L71.986,155.1 L70.77,156.316 L71.986,157.494 L73.164,156.316 L73.164,156.316 Z M66.096,151.604 L64.956,150.388 L63.74,151.604 L64.956,152.782 L66.096,151.604 L66.096,151.604 Z M68.49,153.96 L67.312,152.744 L66.096,153.96 L67.312,155.138 L68.49,153.96 L68.49,153.96 Z M70.846,156.316 L69.668,155.1 L68.452,156.316 L69.668,157.494 L70.846,156.316 L70.846,156.316 Z M73.164,158.672 L71.986,157.456 L70.77,158.672 L71.986,159.85 L73.164,158.672 L73.164,158.672 Z M63.74,151.604 L62.6,150.388 L61.384,151.604 L62.6,152.782 L63.74,151.604 L63.74,151.604 Z M66.134,153.96 L64.956,152.744 L63.74,153.96 L64.956,155.138 L66.134,153.96 L66.134,153.96 Z M68.49,156.316 L67.312,155.1 L66.096,156.316 L67.312,157.494 L68.49,156.316 L68.49,156.316 Z M70.846,158.672 L69.668,157.456 L68.452,158.672 L69.668,159.85 L70.846,158.672 L70.846,158.672 Z M73.164,161.028 L71.986,159.812 L70.77,161.028 L71.986,162.206 L73.164,161.028 L73.164,161.028 Z M61.384,151.604 L60.244,150.388 L59.028,151.604 L60.244,152.782 L61.384,151.604 L61.384,151.604 Z M63.778,153.96 L62.6,152.744 L61.384,153.96 L62.6,155.138 L63.778,153.96 L63.778,153.96 Z M68.49,158.672 L67.312,157.456 L66.096,158.672 L67.312,159.85 L68.49,158.672 L68.49,158.672 Z M70.846,161.028 L69.668,159.812 L68.452,161.028 L69.668,162.206 L70.846,161.028 L70.846,161.028 Z M73.164,163.384 L71.986,162.168 L70.77,163.384 L71.986,164.562 L73.164,163.384 L73.164,163.384 Z M59.066,151.604 L57.926,150.388 L56.71,151.604 L57.926,152.782 L59.066,151.604 L59.066,151.604 Z M61.422,153.96 L60.244,152.744 L59.028,153.96 L60.244,155.138 L61.422,153.96 L61.422,153.96 Z M68.49,161.028 L67.312,159.812 L66.096,161.028 L67.312,162.206 L68.49,161.028 L68.49,161.028 Z M70.846,163.384 L69.668,162.168 L68.452,163.384 L69.668,164.562 L70.846,163.384 L70.846,163.384 Z M73.164,165.74 L71.986,164.524 L70.77,165.74 L71.986,166.918 L73.164,165.74 L73.164,165.74 Z M56.71,151.604 L55.57,150.388 L54.354,151.604 L55.57,152.782 L56.71,151.604 L56.71,151.604 Z M59.104,153.96 L57.926,152.744 L56.71,153.96 L57.926,155.138 L59.104,153.96 L59.104,153.96 Z M68.49,163.384 L67.312,162.168 L66.096,163.384 L67.312,164.562 L68.49,163.384 L68.49,163.384 Z M70.846,165.74 L69.668,164.524 L68.452,165.74 L69.668,166.918 L70.846,165.74 L70.846,165.74 Z M73.164,168.058 L71.986,166.842 L70.77,168.058 L71.986,169.236 L73.164,168.058 L73.164,168.058 Z M54.354,151.604 L53.214,150.388 L51.998,151.604 L53.214,152.782 L54.354,151.604 L54.354,151.604 Z M56.748,153.96 L55.57,152.744 L54.354,153.96 L55.57,155.138 L56.748,153.96 L56.748,153.96 Z M59.104,156.316 L57.926,155.1 L56.71,156.316 L57.926,157.494 L59.104,156.316 L59.104,156.316 Z M70.846,168.058 L69.668,166.842 L68.452,168.058 L69.668,169.236 L70.846,168.058 L70.846,168.058 Z M68.452,165.74 L67.312,164.524 L66.096,165.74 L67.312,166.918 L68.452,165.74 L68.452,165.74 Z M73.164,170.414 L71.986,169.198 L70.77,170.414 L71.986,171.592 L73.164,170.414 L73.164,170.414 Z M54.354,153.96 L53.214,152.744 L51.998,153.96 L53.214,155.138 L54.354,153.96 L54.354,153.96 Z M56.748,156.316 L55.57,155.1 L54.354,156.316 L55.57,157.494 L56.748,156.316 L56.748,156.316 Z M59.104,158.672 L57.926,157.456 L56.71,158.672 L57.926,159.85 L59.104,158.672 L59.104,158.672 Z M68.49,168.058 L67.312,166.842 L66.096,168.058 L67.312,169.236 L68.49,168.058 L68.49,168.058 Z M70.846,170.414 L69.668,169.198 L68.452,170.414 L69.668,171.592 L70.846,170.414 L70.846,170.414 Z M73.164,172.77 L71.986,171.554 L70.77,172.77 L71.986,173.948 L73.164,172.77 L73.164,172.77 Z M54.354,156.316 L53.214,155.1 L51.998,156.316 L53.214,157.494 L54.354,156.316 L54.354,156.316 Z M56.748,158.672 L55.57,157.456 L54.354,158.672 L55.57,159.85 L56.748,158.672 L56.748,158.672 Z M59.104,161.028 L57.926,159.812 L56.71,161.028 L57.926,162.206 L59.104,161.028 L59.104,161.028 Z M68.49,170.414 L67.312,169.198 L66.096,170.414 L67.312,171.592 L68.49,170.414 L68.49,170.414 Z M70.846,172.77 L69.668,171.554 L68.452,172.77 L69.668,173.948 L70.846,172.77 L70.846,172.77 Z M54.354,158.672 L53.214,157.456 L51.998,158.672 L53.214,159.85 L54.354,158.672 L54.354,158.672 Z M56.748,161.028 L55.57,159.812 L54.354,161.028 L55.57,162.206 L56.748,161.028 L56.748,161.028 Z M59.104,163.384 L57.926,162.168 L56.71,163.384 L57.926,164.562 L59.104,163.384 L59.104,163.384 Z M68.49,172.77 L67.312,171.554 L66.096,172.77 L67.312,173.948 L68.49,172.77 L68.49,172.77 Z M70.846,175.126 L69.668,173.91 L68.452,175.126 L69.668,176.304 L70.846,175.126 L70.846,175.126 Z M54.354,161.028 L53.214,159.812 L51.998,161.028 L53.214,162.206 L54.354,161.028 L54.354,161.028 Z M56.748,163.384 L55.57,162.168 L54.354,163.384 L55.57,164.562 L56.748,163.384 L56.748,163.384 Z M59.104,165.74 L57.926,164.524 L56.71,165.74 L57.926,166.918 L59.104,165.74 L59.104,165.74 Z M66.134,172.77 L64.956,171.554 L63.74,172.77 L64.956,173.948 L66.134,172.77 L66.134,172.77 Z M68.49,175.126 L67.312,173.91 L66.096,175.126 L67.312,176.304 L68.49,175.126 L68.49,175.126 Z M59.066,168.058 L57.926,166.842 L56.71,168.058 L57.926,169.236 L59.066,168.058 L59.066,168.058 Z M54.354,163.384 L53.214,162.168 L51.998,163.384 L53.214,164.562 L54.354,163.384 L54.354,163.384 Z M56.748,165.74 L55.57,164.524 L54.354,165.74 L55.57,166.918 L56.748,165.74 L56.748,165.74 Z M63.778,172.77 L62.6,171.554 L61.384,172.77 L62.6,173.948 L63.778,172.77 L63.778,172.77 Z M66.134,175.126 L64.956,173.91 L63.74,175.126 L64.956,176.304 L66.134,175.126 L66.134,175.126 Z M56.71,168.058 L55.57,166.842 L54.354,168.058 L55.57,169.236 L56.71,168.058 L56.71,168.058 Z M59.104,170.414 L57.926,169.198 L56.71,170.414 L57.926,171.592 L59.104,170.414 L59.104,170.414 Z M54.354,165.74 L53.214,164.524 L51.998,165.74 L53.214,166.918 L54.354,165.74 L54.354,165.74 Z M61.422,172.77 L60.244,171.554 L59.028,172.77 L60.244,173.948 L61.422,172.77 L61.422,172.77 Z M63.778,175.126 L62.6,173.91 L61.384,175.126 L62.6,176.304 L63.778,175.126 L63.778,175.126 Z M54.354,168.058 L53.214,166.842 L51.998,168.058 L53.214,169.236 L54.354,168.058 L54.354,168.058 Z M56.748,170.414 L55.57,169.198 L54.354,170.414 L55.57,171.592 L56.748,170.414 L56.748,170.414 Z M59.104,172.77 L57.926,171.554 L56.71,172.77 L57.926,173.948 L59.104,172.77 L59.104,172.77 Z M61.422,175.126 L60.244,173.91 L59.028,175.126 L60.244,176.304 L61.422,175.126 L61.422,175.126 Z M54.354,170.414 L53.214,169.198 L51.998,170.414 L53.214,171.592 L54.354,170.414 L54.354,170.414 Z M56.748,172.77 L55.57,171.554 L54.354,172.77 L55.57,173.948 L56.748,172.77 L56.748,172.77 Z M59.104,175.126 L57.926,173.91 L56.71,175.126 L57.926,176.304 L59.104,175.126 L59.104,175.126 Z M54.354,172.77 L53.214,171.554 L51.998,172.77 L53.214,173.948 L54.354,172.77 L54.354,172.77 Z M56.748,175.126 L55.57,173.91 L54.354,175.126 L55.57,176.304 L56.748,175.126 L56.748,175.126 Z M54.354,175.126 L53.214,173.91 L51.998,175.126 L53.214,176.304 L54.354,175.126 L54.354,175.126 Z M96.686,151.604 L95.508,150.388 L94.292,151.604 L95.508,152.782 L96.686,151.604 L96.686,151.604 Z M99.004,153.96 L97.826,152.744 L96.61,153.96 L97.826,155.138 L99.004,153.96 L99.004,153.96 Z M94.292,151.604 L93.152,150.388 L91.936,151.604 L93.152,152.782 L94.292,151.604 L94.292,151.604 Z M96.686,153.96 L95.508,152.744 L94.292,153.96 L95.508,155.138 L96.686,153.96 L96.686,153.96 Z M99.004,156.316 L97.826,155.1 L96.61,156.316 L97.826,157.494 L99.004,156.316 L99.004,156.316 Z M91.936,151.604 L90.796,150.388 L89.58,151.604 L90.796,152.782 L91.936,151.604 L91.936,151.604 Z M94.33,153.96 L93.152,152.744 L91.936,153.96 L93.152,155.138 L94.33,153.96 L94.33,153.96 Z M96.686,156.316 L95.508,155.1 L94.292,156.316 L95.508,157.494 L96.686,156.316 L96.686,156.316 Z M89.58,151.604 L88.44,150.388 L87.224,151.604 L88.44,152.782 L89.58,151.604 L89.58,151.604 Z M91.974,153.96 L90.796,152.744 L89.58,153.96 L90.796,155.138 L91.974,153.96 L91.974,153.96 Z M94.33,156.316 L93.152,155.1 L91.936,156.316 L93.152,157.494 L94.33,156.316 L94.33,156.316 Z M87.224,151.604 L86.084,150.388 L84.868,151.604 L86.084,152.782 L87.224,151.604 L87.224,151.604 Z M89.618,153.96 L88.44,152.744 L87.224,153.96 L88.44,155.138 L89.618,153.96 L89.618,153.96 Z M84.906,151.604 L83.766,150.388 L82.55,151.604 L83.766,152.782 L84.906,151.604 L84.906,151.604 Z M87.262,153.96 L86.084,152.744 L84.868,153.96 L86.084,155.138 L87.262,153.96 L87.262,153.96 Z M82.55,151.604 L81.41,150.388 L80.194,151.604 L81.41,152.782 L82.55,151.604 L82.55,151.604 Z M84.944,153.96 L83.766,152.744 L82.55,153.96 L83.766,155.138 L84.944,153.96 L84.944,153.96 Z M82.55,153.96 L81.41,152.744 L80.194,153.96 L81.41,155.138 L82.55,153.96 L82.55,153.96 Z M84.944,156.316 L83.766,155.1 L82.55,156.316 L83.766,157.494 L84.944,156.316 L84.944,156.316 Z M99.004,170.414 L97.826,169.198 L96.61,170.414 L97.826,171.592 L99.004,170.414 L99.004,170.414 Z M80.194,153.96 L79.054,152.744 L77.838,153.96 L79.054,155.138 L80.194,153.96 L80.194,153.96 Z M82.588,156.316 L81.41,155.1 L80.194,156.316 L81.41,157.494 L82.588,156.316 L82.588,156.316 Z M84.944,158.672 L83.766,157.456 L82.55,158.672 L83.766,159.85 L84.944,158.672 L84.944,158.672 Z M96.686,170.414 L95.508,169.198 L94.292,170.414 L95.508,171.592 L96.686,170.414 L96.686,170.414 Z M99.004,172.77 L97.826,171.554 L96.61,172.77 L97.826,173.948 L99.004,172.77 L99.004,172.77 Z M80.194,156.316 L79.054,155.1 L77.838,156.316 L79.054,157.494 L80.194,156.316 L80.194,156.316 Z M82.588,158.672 L81.41,157.456 L80.194,158.672 L81.41,159.85 L82.588,158.672 L82.588,158.672 Z M84.944,161.028 L83.766,159.812 L82.55,161.028 L83.766,162.206 L84.944,161.028 L84.944,161.028 Z M94.33,170.414 L93.152,169.198 L91.936,170.414 L93.152,171.592 L94.33,170.414 L94.33,170.414 Z M96.686,172.77 L95.508,171.554 L94.292,172.77 L95.508,173.948 L96.686,172.77 L96.686,172.77 Z M80.194,158.672 L79.054,157.456 L77.838,158.672 L79.054,159.85 L80.194,158.672 L80.194,158.672 Z M82.588,161.028 L81.41,159.812 L80.194,161.028 L81.41,162.206 L82.588,161.028 L82.588,161.028 Z M84.944,163.384 L83.766,162.168 L82.55,163.384 L83.766,164.562 L84.944,163.384 L84.944,163.384 Z M94.33,172.77 L93.152,171.554 L91.936,172.77 L93.152,173.948 L94.33,172.77 L94.33,172.77 Z M96.686,175.126 L95.508,173.91 L94.292,175.126 L95.508,176.304 L96.686,175.126 L96.686,175.126 Z M80.194,161.028 L79.054,159.812 L77.838,161.028 L79.054,162.206 L80.194,161.028 L80.194,161.028 Z M82.588,163.384 L81.41,162.168 L80.194,163.384 L81.41,164.562 L82.588,163.384 L82.588,163.384 Z M84.944,165.74 L83.766,164.524 L82.55,165.74 L83.766,166.918 L84.944,165.74 L84.944,165.74 Z M91.974,172.77 L90.796,171.554 L89.58,172.77 L90.796,173.948 L91.974,172.77 L91.974,172.77 Z M94.33,175.126 L93.152,173.91 L91.936,175.126 L93.152,176.304 L94.33,175.126 L94.33,175.126 Z M84.906,168.058 L83.766,166.842 L82.55,168.058 L83.766,169.236 L84.906,168.058 L84.906,168.058 Z M80.194,163.384 L79.054,162.168 L77.838,163.384 L79.054,164.562 L80.194,163.384 L80.194,163.384 Z M82.588,165.74 L81.41,164.524 L80.194,165.74 L81.41,166.918 L82.588,165.74 L82.588,165.74 Z M89.618,172.77 L88.44,171.554 L87.224,172.77 L88.44,173.948 L89.618,172.77 L89.618,172.77 Z M91.974,175.126 L90.796,173.91 L89.58,175.126 L90.796,176.304 L91.974,175.126 L91.974,175.126 Z M82.55,168.058 L81.41,166.842 L80.194,168.058 L81.41,169.236 L82.55,168.058 L82.55,168.058 Z M84.944,170.414 L83.766,169.198 L82.55,170.414 L83.766,171.592 L84.944,170.414 L84.944,170.414 Z M80.194,165.74 L79.054,164.524 L77.838,165.74 L79.054,166.918 L80.194,165.74 L80.194,165.74 Z M87.262,172.77 L86.084,171.554 L84.868,172.77 L86.084,173.948 L87.262,172.77 L87.262,172.77 Z M89.618,175.126 L88.44,173.91 L87.224,175.126 L88.44,176.304 L89.618,175.126 L89.618,175.126 Z M80.194,168.058 L79.054,166.842 L77.838,168.058 L79.054,169.236 L80.194,168.058 L80.194,168.058 Z M82.588,170.414 L81.41,169.198 L80.194,170.414 L81.41,171.592 L82.588,170.414 L82.588,170.414 Z M84.944,172.77 L83.766,171.554 L82.55,172.77 L83.766,173.948 L84.944,172.77 L84.944,172.77 Z M87.262,175.126 L86.084,173.91 L84.868,175.126 L86.084,176.304 L87.262,175.126 L87.262,175.126 Z M80.194,170.414 L79.054,169.198 L77.838,170.414 L79.054,171.592 L80.194,170.414 L80.194,170.414 Z M82.588,172.77 L81.41,171.554 L80.194,172.77 L81.41,173.948 L82.588,172.77 L82.588,172.77 Z M84.944,175.126 L83.766,173.91 L82.55,175.126 L83.766,176.304 L84.944,175.126 L84.944,175.126 Z M80.194,172.77 L79.054,171.554 L77.838,172.77 L79.054,173.948 L80.194,172.77 L80.194,172.77 Z M82.588,175.126 L81.41,173.91 L80.194,175.126 L81.41,176.304 L82.588,175.126 L82.588,175.126 Z M122.526,151.604 L121.348,150.388 L120.132,151.604 L121.348,152.782 L122.526,151.604 L122.526,151.604 Z M124.844,153.96 L123.666,152.744 L122.45,153.96 L123.666,155.138 L124.844,153.96 L124.844,153.96 Z M120.132,151.604 L118.992,150.388 L117.776,151.604 L118.992,152.782 L120.132,151.604 L120.132,151.604 Z M122.526,153.96 L121.348,152.744 L120.132,153.96 L121.348,155.138 L122.526,153.96 L122.526,153.96 Z M124.844,156.316 L123.666,155.1 L122.45,156.316 L123.666,157.494 L124.844,156.316 L124.844,156.316 Z M117.776,151.604 L116.636,150.388 L115.42,151.604 L116.636,152.782 L117.776,151.604 L117.776,151.604 Z M120.17,153.96 L118.992,152.744 L117.776,153.96 L118.992,155.138 L120.17,153.96 L120.17,153.96 Z M122.526,156.316 L121.348,155.1 L120.132,156.316 L121.348,157.494 L122.526,156.316 L122.526,156.316 Z M124.844,158.672 L123.666,157.456 L122.45,158.672 L123.666,159.85 L124.844,158.672 L124.844,158.672 Z M115.42,151.604 L114.28,150.388 L113.064,151.604 L114.28,152.782 L115.42,151.604 L115.42,151.604 Z M117.814,153.96 L116.636,152.744 L115.42,153.96 L116.636,155.138 L117.814,153.96 L117.814,153.96 Z M120.17,156.316 L118.992,155.1 L117.776,156.316 L118.992,157.494 L120.17,156.316 L120.17,156.316 Z M122.526,158.672 L121.348,157.456 L120.132,158.672 L121.348,159.85 L122.526,158.672 L122.526,158.672 Z M124.844,161.028 L123.666,159.812 L122.45,161.028 L123.666,162.206 L124.844,161.028 L124.844,161.028 Z M113.064,151.604 L111.924,150.388 L110.708,151.604 L111.924,152.782 L113.064,151.604 L113.064,151.604 Z M115.458,153.96 L114.28,152.744 L113.064,153.96 L114.28,155.138 L115.458,153.96 L115.458,153.96 Z M120.17,158.672 L118.992,157.456 L117.776,158.672 L118.992,159.85 L120.17,158.672 L120.17,158.672 Z M122.526,161.028 L121.348,159.812 L120.132,161.028 L121.348,162.206 L122.526,161.028 L122.526,161.028 Z M124.844,163.384 L123.666,162.168 L122.45,163.384 L123.666,164.562 L124.844,163.384 L124.844,163.384 Z M110.746,151.604 L109.606,150.388 L108.39,151.604 L109.606,152.782 L110.746,151.604 L110.746,151.604 Z M113.102,153.96 L111.924,152.744 L110.708,153.96 L111.924,155.138 L113.102,153.96 L113.102,153.96 Z M120.17,161.028 L118.992,159.812 L117.776,161.028 L118.992,162.206 L120.17,161.028 L120.17,161.028 Z M122.526,163.384 L121.348,162.168 L120.132,163.384 L121.348,164.562 L122.526,163.384 L122.526,163.384 Z M124.844,165.74 L123.666,164.524 L122.45,165.74 L123.666,166.918 L124.844,165.74 L124.844,165.74 Z M108.39,151.604 L107.25,150.388 L106.034,151.604 L107.25,152.782 L108.39,151.604 L108.39,151.604 Z M110.784,153.96 L109.606,152.744 L108.39,153.96 L109.606,155.138 L110.784,153.96 L110.784,153.96 Z M120.17,163.384 L118.992,162.168 L117.776,163.384 L118.992,164.562 L120.17,163.384 L120.17,163.384 Z M122.526,165.74 L121.348,164.524 L120.132,165.74 L121.348,166.918 L122.526,165.74 L122.526,165.74 Z M124.844,168.058 L123.666,166.842 L122.45,168.058 L123.666,169.236 L124.844,168.058 L124.844,168.058 Z M108.39,153.96 L107.25,152.744 L106.034,153.96 L107.25,155.138 L108.39,153.96 L108.39,153.96 Z M110.784,156.316 L109.606,155.1 L108.39,156.316 L109.606,157.494 L110.784,156.316 L110.784,156.316 Z M122.526,168.058 L121.348,166.842 L120.132,168.058 L121.348,169.236 L122.526,168.058 L122.526,168.058 Z M117.776,163.384 L116.636,162.168 L115.42,163.384 L116.636,164.562 L117.776,163.384 L117.776,163.384 Z M120.17,165.74 L118.992,164.524 L117.776,165.74 L118.992,166.918 L120.17,165.74 L120.17,165.74 Z M124.844,170.414 L123.666,169.198 L122.45,170.414 L123.666,171.592 L124.844,170.414 L124.844,170.414 Z M106.034,153.96 L104.894,152.744 L103.678,153.96 L104.894,155.138 L106.034,153.96 L106.034,153.96 Z M108.428,156.316 L107.25,155.1 L106.034,156.316 L107.25,157.494 L108.428,156.316 L108.428,156.316 Z M110.784,158.672 L109.606,157.456 L108.39,158.672 L109.606,159.85 L110.784,158.672 L110.784,158.672 Z M120.17,168.058 L118.992,166.842 L117.776,168.058 L118.992,169.236 L120.17,168.058 L120.17,168.058 Z M122.526,170.414 L121.348,169.198 L120.132,170.414 L121.348,171.592 L122.526,170.414 L122.526,170.414 Z M115.42,163.384 L114.28,162.168 L113.064,163.384 L114.28,164.562 L115.42,163.384 L115.42,163.384 Z M117.814,165.74 L116.636,164.524 L115.42,165.74 L116.636,166.918 L117.814,165.74 L117.814,165.74 Z M124.844,172.77 L123.666,171.554 L122.45,172.77 L123.666,173.948 L124.844,172.77 L124.844,172.77 Z M106.034,156.316 L104.894,155.1 L103.678,156.316 L104.894,157.494 L106.034,156.316 L106.034,156.316 Z M108.428,158.672 L107.25,157.456 L106.034,158.672 L107.25,159.85 L108.428,158.672 L108.428,158.672 Z M110.784,161.028 L109.606,159.812 L108.39,161.028 L109.606,162.206 L110.784,161.028 L110.784,161.028 Z M120.17,170.414 L118.992,169.198 L117.776,170.414 L118.992,171.592 L120.17,170.414 L120.17,170.414 Z M122.526,172.77 L121.348,171.554 L120.132,172.77 L121.348,173.948 L122.526,172.77 L122.526,172.77 Z M113.064,163.384 L111.924,162.168 L110.708,163.384 L111.924,164.562 L113.064,163.384 L113.064,163.384 Z M115.458,165.74 L114.28,164.524 L113.064,165.74 L114.28,166.918 L115.458,165.74 L115.458,165.74 Z M124.844,175.126 L123.666,173.91 L122.45,175.126 L123.666,176.304 L124.844,175.126 L124.844,175.126 Z M106.034,158.672 L104.894,157.456 L103.678,158.672 L104.894,159.85 L106.034,158.672 L106.034,158.672 Z M108.428,161.028 L107.25,159.812 L106.034,161.028 L107.25,162.206 L108.428,161.028 L108.428,161.028 Z M110.784,163.384 L109.606,162.168 L108.39,163.384 L109.606,164.562 L110.784,163.384 L110.784,163.384 Z M120.17,172.77 L118.992,171.554 L117.776,172.77 L118.992,173.948 L120.17,172.77 L120.17,172.77 Z M122.526,175.126 L121.348,173.91 L120.132,175.126 L121.348,176.304 L122.526,175.126 L122.526,175.126 Z M113.064,165.74 L111.924,164.524 L110.708,165.74 L111.924,166.918 L113.064,165.74 L113.064,165.74 Z M106.034,161.028 L104.894,159.812 L103.678,161.028 L104.894,162.206 L106.034,161.028 L106.034,161.028 Z M108.428,163.384 L107.25,162.168 L106.034,163.384 L107.25,164.562 L108.428,163.384 L108.428,163.384 Z M110.784,165.74 L109.606,164.524 L108.39,165.74 L109.606,166.918 L110.784,165.74 L110.784,165.74 Z M120.17,175.126 L118.992,173.91 L117.776,175.126 L118.992,176.304 L120.17,175.126 L120.17,175.126 Z M110.746,168.058 L109.606,166.842 L108.39,168.058 L109.606,169.236 L110.746,168.058 L110.746,168.058 Z M106.034,163.384 L104.894,162.168 L103.678,163.384 L104.894,164.562 L106.034,163.384 L106.034,163.384 Z M108.428,165.74 L107.25,164.524 L106.034,165.74 L107.25,166.918 L108.428,165.74 L108.428,165.74 Z M108.428,168.058 L107.25,166.842 L106.034,168.058 L107.25,169.236 L108.428,168.058 L108.428,168.058 Z M110.784,170.414 L109.606,169.198 L108.39,170.414 L109.606,171.592 L110.784,170.414 L110.784,170.414 Z M106.034,165.74 L104.894,164.524 L103.678,165.74 L104.894,166.918 L106.034,165.74 L106.034,165.74 Z M106.072,168.058 L104.894,166.842 L103.678,168.058 L104.894,169.236 L106.072,168.058 L106.072,168.058 Z M108.428,170.414 L107.25,169.198 L106.034,170.414 L107.25,171.592 L108.428,170.414 L108.428,170.414 Z M110.784,172.77 L109.606,171.554 L108.39,172.77 L109.606,173.948 L110.784,172.77 L110.784,172.77 Z M106.034,170.414 L104.894,169.198 L103.678,170.414 L104.894,171.592 L106.034,170.414 L106.034,170.414 Z M108.428,172.77 L107.25,171.554 L106.034,172.77 L107.25,173.948 L108.428,172.77 L108.428,172.77 Z M110.784,175.126 L109.606,173.91 L108.39,175.126 L109.606,176.304 L110.784,175.126 L110.784,175.126 Z M106.034,172.77 L104.894,171.554 L103.678,172.77 L104.894,173.948 L106.034,172.77 L106.034,172.77 Z M108.428,175.126 L107.25,173.91 L106.034,175.126 L107.25,176.304 L108.428,175.126 L108.428,175.126 Z M106.034,175.126 L104.894,173.91 L103.678,175.126 L104.894,176.304 L106.034,175.126 L106.034,175.126 Z M155.396,151.604 L154.218,150.388 L153.002,151.604 L154.218,152.782 L155.396,151.604 L155.396,151.604 Z M153.002,151.604 L151.862,150.388 L150.646,151.604 L151.862,152.782 L153.002,151.604 L153.002,151.604 Z M155.396,153.96 L154.218,152.744 L153.002,153.96 L154.218,155.138 L155.396,153.96 L155.396,153.96 Z M150.646,151.604 L149.506,150.388 L148.29,151.604 L149.506,152.782 L150.646,151.604 L150.646,151.604 Z M153.04,153.96 L151.862,152.744 L150.646,153.96 L151.862,155.138 L153.04,153.96 L153.04,153.96 Z M155.396,156.316 L154.218,155.1 L153.002,156.316 L154.218,157.494 L155.396,156.316 L155.396,156.316 Z M150.646,153.96 L149.506,152.744 L148.29,153.96 L149.506,155.138 L150.646,153.96 L150.646,153.96 Z M153.04,156.316 L151.862,155.1 L150.646,156.316 L151.862,157.494 L153.04,156.316 L153.04,156.316 Z M155.396,158.672 L154.218,157.456 L153.002,158.672 L154.218,159.85 L155.396,158.672 L155.396,158.672 Z M148.328,153.96 L147.188,152.744 L145.972,153.96 L147.188,155.138 L148.328,153.96 L148.328,153.96 Z M150.684,156.316 L149.506,155.1 L148.29,156.316 L149.506,157.494 L150.684,156.316 L150.684,156.316 Z M153.04,158.672 L151.862,157.456 L150.646,158.672 L151.862,159.85 L153.04,158.672 L153.04,158.672 Z M155.396,161.028 L154.218,159.812 L153.002,161.028 L154.218,162.206 L155.396,161.028 L155.396,161.028 Z M148.328,156.316 L147.188,155.1 L145.972,156.316 L147.188,157.494 L148.328,156.316 L148.328,156.316 Z M150.684,158.672 L149.506,157.456 L148.29,158.672 L149.506,159.85 L150.684,158.672 L150.684,158.672 Z M153.04,161.028 L151.862,159.812 L150.646,161.028 L151.862,162.206 L153.04,161.028 L153.04,161.028 Z M155.396,163.384 L154.218,162.168 L153.002,163.384 L154.218,164.562 L155.396,163.384 L155.396,163.384 Z M145.972,156.316 L144.832,155.1 L143.616,156.316 L144.832,157.494 L145.972,156.316 L145.972,156.316 Z M148.366,158.672 L147.188,157.456 L145.972,158.672 L147.188,159.85 L148.366,158.672 L148.366,158.672 Z M150.684,161.028 L149.506,159.812 L148.29,161.028 L149.506,162.206 L150.684,161.028 L150.684,161.028 Z M153.04,163.384 L151.862,162.168 L150.646,163.384 L151.862,164.562 L153.04,163.384 L153.04,163.384 Z M155.396,165.74 L154.218,164.524 L153.002,165.74 L154.218,166.918 L155.396,165.74 L155.396,165.74 Z M145.972,158.672 L144.832,157.456 L143.616,158.672 L144.832,159.85 L145.972,158.672 L145.972,158.672 Z M155.396,168.058 L154.218,166.842 L153.002,168.058 L154.218,169.236 L155.396,168.058 L155.396,168.058 Z M150.646,163.384 L149.506,162.168 L148.29,163.384 L149.506,164.562 L150.646,163.384 L150.646,163.384 Z M153.04,165.74 L151.862,164.524 L150.646,165.74 L151.862,166.918 L153.04,165.74 L153.04,165.74 Z M136.586,151.604 L135.446,150.388 L134.23,151.604 L135.446,152.782 L136.586,151.604 L136.586,151.604 Z M138.942,153.96 L137.764,152.744 L136.548,153.96 L137.764,155.138 L138.942,153.96 L138.942,153.96 Z M141.298,156.316 L140.12,155.1 L138.904,156.316 L140.12,157.494 L141.298,156.316 L141.298,156.316 Z M143.654,158.672 L142.476,157.456 L141.26,158.672 L142.476,159.85 L143.654,158.672 L143.654,158.672 Z M146.01,161.028 L144.832,159.812 L143.616,161.028 L144.832,162.206 L146.01,161.028 L146.01,161.028 Z M153.04,168.058 L151.862,166.842 L150.646,168.058 L151.862,169.236 L153.04,168.058 L153.04,168.058 Z M155.396,170.414 L154.218,169.198 L153.002,170.414 L154.218,171.592 L155.396,170.414 L155.396,170.414 Z M150.646,165.74 L149.506,164.524 L148.29,165.74 L149.506,166.918 L150.646,165.74 L150.646,165.74 Z M134.23,151.604 L133.09,150.388 L131.874,151.604 L133.09,152.782 L134.23,151.604 L134.23,151.604 Z M136.624,153.96 L135.446,152.744 L134.23,153.96 L135.446,155.138 L136.624,153.96 L136.624,153.96 Z M138.942,156.316 L137.764,155.1 L136.548,156.316 L137.764,157.494 L138.942,156.316 L138.942,156.316 Z M141.298,158.672 L140.12,157.456 L138.904,158.672 L140.12,159.85 L141.298,158.672 L141.298,158.672 Z M143.654,161.028 L142.476,159.812 L141.26,161.028 L142.476,162.206 L143.654,161.028 L143.654,161.028 Z M150.684,168.058 L149.506,166.842 L148.29,168.058 L149.506,169.236 L150.684,168.058 L150.684,168.058 Z M153.04,170.414 L151.862,169.198 L150.646,170.414 L151.862,171.592 L153.04,170.414 L153.04,170.414 Z M155.396,172.77 L154.218,171.554 L153.002,172.77 L154.218,173.948 L155.396,172.77 L155.396,172.77 Z M131.874,151.604 L130.734,150.388 L129.518,151.604 L130.734,152.782 L131.874,151.604 L131.874,151.604 Z M134.268,153.96 L133.09,152.744 L131.874,153.96 L133.09,155.138 L134.268,153.96 L134.268,153.96 Z M136.624,156.316 L135.446,155.1 L134.23,156.316 L135.446,157.494 L136.624,156.316 L136.624,156.316 Z M138.942,158.672 L137.764,157.456 L136.548,158.672 L137.764,159.85 L138.942,158.672 L138.942,158.672 Z M141.298,161.028 L140.12,159.812 L138.904,161.028 L140.12,162.206 L141.298,161.028 L141.298,161.028 Z M143.654,163.384 L142.476,162.168 L141.26,163.384 L142.476,164.562 L143.654,163.384 L143.654,163.384 Z M150.684,170.414 L149.506,169.198 L148.29,170.414 L149.506,171.592 L150.684,170.414 L150.684,170.414 Z M153.04,172.77 L151.862,171.554 L150.646,172.77 L151.862,173.948 L153.04,172.77 L153.04,172.77 Z M155.396,175.126 L154.218,173.91 L153.002,175.126 L154.218,176.304 L155.396,175.126 L155.396,175.126 Z M131.874,153.96 L130.734,152.744 L129.518,153.96 L130.734,155.138 L131.874,153.96 L131.874,153.96 Z M134.268,156.316 L133.09,155.1 L131.874,156.316 L133.09,157.494 L134.268,156.316 L134.268,156.316 Z M136.624,158.672 L135.446,157.456 L134.23,158.672 L135.446,159.85 L136.624,158.672 L136.624,158.672 Z M150.684,172.77 L149.506,171.554 L148.29,172.77 L149.506,173.948 L150.684,172.77 L150.684,172.77 Z M153.04,175.126 L151.862,173.91 L150.646,175.126 L151.862,176.304 L153.04,175.126 L153.04,175.126 Z M131.874,156.316 L130.734,155.1 L129.518,156.316 L130.734,157.494 L131.874,156.316 L131.874,156.316 Z M134.268,158.672 L133.09,157.456 L131.874,158.672 L133.09,159.85 L134.268,158.672 L134.268,158.672 Z M136.624,161.028 L135.446,159.812 L134.23,161.028 L135.446,162.206 L136.624,161.028 L136.624,161.028 Z M150.684,175.126 L149.506,173.91 L148.29,175.126 L149.506,176.304 L150.684,175.126 L150.684,175.126 Z M131.874,158.672 L130.734,157.456 L129.518,158.672 L130.734,159.85 L131.874,158.672 L131.874,158.672 Z M134.268,161.028 L133.09,159.812 L131.874,161.028 L133.09,162.206 L134.268,161.028 L134.268,161.028 Z M136.624,163.384 L135.446,162.168 L134.23,163.384 L135.446,164.562 L136.624,163.384 L136.624,163.384 Z M131.874,161.028 L130.734,159.812 L129.518,161.028 L130.734,162.206 L131.874,161.028 L131.874,161.028 Z M134.268,163.384 L133.09,162.168 L131.874,163.384 L133.09,164.562 L134.268,163.384 L134.268,163.384 Z M136.624,165.74 L135.446,164.524 L134.23,165.74 L135.446,166.918 L136.624,165.74 L136.624,165.74 Z M136.624,168.058 L135.446,166.842 L134.23,168.058 L135.446,169.236 L136.624,168.058 L136.624,168.058 Z M131.874,163.384 L130.734,162.168 L129.518,163.384 L130.734,164.562 L131.874,163.384 L131.874,163.384 Z M134.268,165.74 L133.09,164.524 L131.874,165.74 L133.09,166.918 L134.268,165.74 L134.268,165.74 Z M134.268,168.058 L133.09,166.842 L131.874,168.058 L133.09,169.236 L134.268,168.058 L134.268,168.058 Z M136.624,170.414 L135.446,169.198 L134.23,170.414 L135.446,171.592 L136.624,170.414 L136.624,170.414 Z M131.874,165.74 L130.734,164.524 L129.518,165.74 L130.734,166.918 L131.874,165.74 L131.874,165.74 Z M131.912,168.058 L130.734,166.842 L129.518,168.058 L130.734,169.236 L131.912,168.058 L131.912,168.058 Z M134.268,170.414 L133.09,169.198 L131.874,170.414 L133.09,171.592 L134.268,170.414 L134.268,170.414 Z M136.624,172.77 L135.446,171.554 L134.23,172.77 L135.446,173.948 L136.624,172.77 L136.624,172.77 Z M131.874,170.414 L130.734,169.198 L129.518,170.414 L130.734,171.592 L131.874,170.414 L131.874,170.414 Z M134.268,172.77 L133.09,171.554 L131.874,172.77 L133.09,173.948 L134.268,172.77 L134.268,172.77 Z M136.624,175.126 L135.446,173.91 L134.23,175.126 L135.446,176.304 L136.624,175.126 L136.624,175.126 Z M131.874,172.77 L130.734,171.554 L129.518,172.77 L130.734,173.948 L131.874,172.77 L131.874,172.77 Z M134.268,175.126 L133.09,173.91 L131.874,175.126 L133.09,176.304 L134.268,175.126 L134.268,175.126 Z M131.874,175.126 L130.734,173.91 L129.518,175.126 L130.734,176.304 L131.874,175.126 L131.874,175.126 Z M178.88,151.604 L177.702,150.388 L176.486,151.604 L177.702,152.782 L178.88,151.604 L178.88,151.604 Z M181.198,153.96 L180.02,152.744 L178.804,153.96 L180.02,155.138 L181.198,153.96 L181.198,153.96 Z M176.486,151.604 L175.346,150.388 L174.13,151.604 L175.346,152.782 L176.486,151.604 L176.486,151.604 Z M178.88,153.96 L177.702,152.744 L176.486,153.96 L177.702,155.138 L178.88,153.96 L178.88,153.96 Z M181.198,156.316 L180.02,155.1 L178.804,156.316 L180.02,157.494 L181.198,156.316 L181.198,156.316 Z M174.13,151.604 L172.99,150.388 L171.774,151.604 L172.99,152.782 L174.13,151.604 L174.13,151.604 Z M176.524,153.96 L175.346,152.744 L174.13,153.96 L175.346,155.138 L176.524,153.96 L176.524,153.96 Z M178.88,156.316 L177.702,155.1 L176.486,156.316 L177.702,157.494 L178.88,156.316 L178.88,156.316 Z M181.198,158.672 L180.02,157.456 L178.804,158.672 L180.02,159.85 L181.198,158.672 L181.198,158.672 Z M171.774,151.604 L170.634,150.388 L169.418,151.604 L170.634,152.782 L171.774,151.604 L171.774,151.604 Z M174.168,153.96 L172.99,152.744 L171.774,153.96 L172.99,155.138 L174.168,153.96 L174.168,153.96 Z M176.524,156.316 L175.346,155.1 L174.13,156.316 L175.346,157.494 L176.524,156.316 L176.524,156.316 Z M178.88,158.672 L177.702,157.456 L176.486,158.672 L177.702,159.85 L178.88,158.672 L178.88,158.672 Z M181.198,161.028 L180.02,159.812 L178.804,161.028 L180.02,162.206 L181.198,161.028 L181.198,161.028 Z M169.418,151.604 L168.278,150.388 L167.062,151.604 L168.278,152.782 L169.418,151.604 L169.418,151.604 Z M171.812,153.96 L170.634,152.744 L169.418,153.96 L170.634,155.138 L171.812,153.96 L171.812,153.96 Z M176.524,158.672 L175.346,157.456 L174.13,158.672 L175.346,159.85 L176.524,158.672 L176.524,158.672 Z M178.88,161.028 L177.702,159.812 L176.486,161.028 L177.702,162.206 L178.88,161.028 L178.88,161.028 Z M181.198,163.384 L180.02,162.168 L178.804,163.384 L180.02,164.562 L181.198,163.384 L181.198,163.384 Z M167.1,151.604 L165.96,150.388 L164.744,151.604 L165.96,152.782 L167.1,151.604 L167.1,151.604 Z M169.456,153.96 L168.278,152.744 L167.062,153.96 L168.278,155.138 L169.456,153.96 L169.456,153.96 Z M176.524,161.028 L175.346,159.812 L174.13,161.028 L175.346,162.206 L176.524,161.028 L176.524,161.028 Z M178.88,163.384 L177.702,162.168 L176.486,163.384 L177.702,164.562 L178.88,163.384 L178.88,163.384 Z M164.744,151.604 L163.604,150.388 L162.388,151.604 L163.604,152.782 L164.744,151.604 L164.744,151.604 Z M167.138,153.96 L165.96,152.744 L164.744,153.96 L165.96,155.138 L167.138,153.96 L167.138,153.96 Z M176.524,163.384 L175.346,162.168 L174.13,163.384 L175.346,164.562 L176.524,163.384 L176.524,163.384 Z M178.88,165.74 L177.702,164.524 L176.486,165.74 L177.702,166.918 L178.88,165.74 L178.88,165.74 Z M162.388,151.604 L161.248,150.388 L160.032,151.604 L161.248,152.782 L162.388,151.604 L162.388,151.604 Z M164.782,153.96 L163.604,152.744 L162.388,153.96 L163.604,155.138 L164.782,153.96 L164.782,153.96 Z M167.138,156.316 L165.96,155.1 L164.744,156.316 L165.96,157.494 L167.138,156.316 L167.138,156.316 Z M174.168,163.384 L172.99,162.168 L171.774,163.384 L172.99,164.562 L174.168,163.384 L174.168,163.384 Z M176.524,165.74 L175.346,164.524 L174.13,165.74 L175.346,166.918 L176.524,165.74 L176.524,165.74 Z M162.388,153.96 L161.248,152.744 L160.032,153.96 L161.248,155.138 L162.388,153.96 L162.388,153.96 Z M164.782,156.316 L163.604,155.1 L162.388,156.316 L163.604,157.494 L164.782,156.316 L164.782,156.316 Z M167.138,158.672 L165.96,157.456 L164.744,158.672 L165.96,159.85 L167.138,158.672 L167.138,158.672 Z M171.812,163.384 L170.634,162.168 L169.418,163.384 L170.634,164.562 L171.812,163.384 L171.812,163.384 Z M174.168,165.74 L172.99,164.524 L171.774,165.74 L172.99,166.918 L174.168,165.74 L174.168,165.74 Z M162.388,156.316 L161.248,155.1 L160.032,156.316 L161.248,157.494 L162.388,156.316 L162.388,156.316 Z M164.782,158.672 L163.604,157.456 L162.388,158.672 L163.604,159.85 L164.782,158.672 L164.782,158.672 Z M167.138,161.028 L165.96,159.812 L164.744,161.028 L165.96,162.206 L167.138,161.028 L167.138,161.028 Z M169.456,163.384 L168.278,162.168 L167.062,163.384 L168.278,164.562 L169.456,163.384 L169.456,163.384 Z M171.812,165.74 L170.634,164.524 L169.418,165.74 L170.634,166.918 L171.812,165.74 L171.812,165.74 Z M162.388,158.672 L161.248,157.456 L160.032,158.672 L161.248,159.85 L162.388,158.672 L162.388,158.672 Z M164.782,161.028 L163.604,159.812 L162.388,161.028 L163.604,162.206 L164.782,161.028 L164.782,161.028 Z M167.138,163.384 L165.96,162.168 L164.744,163.384 L165.96,164.562 L167.138,163.384 L167.138,163.384 Z M169.456,165.74 L168.278,164.524 L167.062,165.74 L168.278,166.918 L169.456,165.74 L169.456,165.74 Z M162.388,161.028 L161.248,159.812 L160.032,161.028 L161.248,162.206 L162.388,161.028 L162.388,161.028 Z M164.782,163.384 L163.604,162.168 L162.388,163.384 L163.604,164.562 L164.782,163.384 L164.782,163.384 Z M167.138,165.74 L165.96,164.524 L164.744,165.74 L165.96,166.918 L167.138,165.74 L167.138,165.74 Z M167.138,168.058 L165.96,166.842 L164.744,168.058 L165.96,169.236 L167.138,168.058 L167.138,168.058 Z M162.388,163.384 L161.248,162.168 L160.032,163.384 L161.248,164.562 L162.388,163.384 L162.388,163.384 Z M164.782,165.74 L163.604,164.524 L162.388,165.74 L163.604,166.918 L164.782,165.74 L164.782,165.74 Z M164.782,168.058 L163.604,166.842 L162.388,168.058 L163.604,169.236 L164.782,168.058 L164.782,168.058 Z M167.138,170.414 L165.96,169.198 L164.744,170.414 L165.96,171.592 L167.138,170.414 L167.138,170.414 Z M162.388,165.74 L161.248,164.524 L160.032,165.74 L161.248,166.918 L162.388,165.74 L162.388,165.74 Z M162.426,168.058 L161.248,166.842 L160.032,168.058 L161.248,169.236 L162.426,168.058 L162.426,168.058 Z M164.782,170.414 L163.604,169.198 L162.388,170.414 L163.604,171.592 L164.782,170.414 L164.782,170.414 Z M167.138,172.77 L165.96,171.554 L164.744,172.77 L165.96,173.948 L167.138,172.77 L167.138,172.77 Z M162.388,170.414 L161.248,169.198 L160.032,170.414 L161.248,171.592 L162.388,170.414 L162.388,170.414 Z M164.782,172.77 L163.604,171.554 L162.388,172.77 L163.604,173.948 L164.782,172.77 L164.782,172.77 Z M167.138,175.126 L165.96,173.91 L164.744,175.126 L165.96,176.304 L167.138,175.126 L167.138,175.126 Z M162.388,172.77 L161.248,171.554 L160.032,172.77 L161.248,173.948 L162.388,172.77 L162.388,172.77 Z M164.782,175.126 L163.604,173.91 L162.388,175.126 L163.604,176.304 L164.782,175.126 L164.782,175.126 Z M162.388,175.126 L161.248,173.91 L160.032,175.126 L161.248,176.304 L162.388,175.126 L162.388,175.126 Z" id="BADCAMP--Copy" fill="url(#linearGradient-2)"></path>
                        </g>
                    </g>
                </g>
            </g>
        </g>
    </g>
</svg>